<?xml version="1.0" encoding="utf-8"?>
<!-- Generator: Adobe Illustrator 27.5.0, SVG Export Plug-In . SVG Version: 6.00 Build 0)  -->
<svg version="1.1" xmlns="http://www.w3.org/2000/svg" xmlns:xlink="http://www.w3.org/1999/xlink" x="0px" y="0px"
	 viewBox="0 0 500 500" style="enable-background:new 0 0 500 500;" xml:space="preserve">
<g id="background">
	<g>
		<rect style="fill:#86BCBB;" width="500" height="500"/>
		<rect y="411" style="fill:#6BA09D;" width="500" height="90.055"/>
		<g style="opacity:0.2;">
			<g>
				
					<rect x="123.312" y="53.055" style="fill:none;stroke:#C1E8E4;stroke-width:6.3639;stroke-miterlimit:10;" width="355.177" height="354.909"/>
				
					<line style="fill:none;stroke:#C1E8E4;stroke-width:6.3639;stroke-miterlimit:10;" x1="126.023" y1="135.509" x2="475.778" y2="135.509"/>
				
					<line style="fill:none;stroke:#C1E8E4;stroke-width:6.3639;stroke-miterlimit:10;" x1="126.023" y1="230.709" x2="475.778" y2="230.709"/>
				
					<line style="fill:none;stroke:#C1E8E4;stroke-width:6.3639;stroke-miterlimit:10;" x1="126.023" y1="325.909" x2="475.778" y2="325.909"/>
			</g>
			<g>
				<g>
					<path style="fill:#E1FFFB;" d="M163.43,134.68V91.777c0-5.553-5.107-10.055-11.407-10.055h-0.76
						c-6.3,0-11.407,4.502-11.407,10.055v42.902H163.43z"/>
					<rect x="147.84" y="65.634" style="fill:#E1FFFB;" width="7.605" height="28.154"/>
				</g>
				<g>
					<path style="fill:#E1FFFB;" d="M197.192,134.68V91.777c0-5.553-5.107-10.055-11.407-10.055h-0.76
						c-6.3,0-11.407,4.502-11.407,10.055v42.902H197.192z"/>
					<rect x="181.602" y="65.634" style="fill:#E1FFFB;" width="7.605" height="28.154"/>
				</g>
				<g>
					<path style="fill:#E1FFFB;" d="M230.954,134.68V91.777c0-5.553-5.107-10.055-11.407-10.055h-0.76
						c-6.3,0-11.407,4.502-11.407,10.055v42.902H230.954z"/>
					<rect x="215.364" y="65.634" style="fill:#E1FFFB;" width="7.605" height="28.154"/>
				</g>
				<g>
					<path style="fill:#E1FFFB;" d="M264.716,134.68V91.777c0-5.553-5.107-10.055-11.407-10.055h-0.761
						c-6.3,0-11.407,4.502-11.407,10.055v42.902H264.716z"/>
					<rect x="249.126" y="65.634" style="fill:#E1FFFB;" width="7.605" height="28.154"/>
				</g>
				<g>
					<path style="fill:#E1FFFB;" d="M298.478,134.68V91.777c0-5.553-5.107-10.055-11.407-10.055h-0.76
						c-6.3,0-11.407,4.502-11.407,10.055v42.902H298.478z"/>
					<rect x="282.888" y="65.634" style="fill:#E1FFFB;" width="7.605" height="28.154"/>
				</g>
				<g>
					<path style="fill:#E1FFFB;" d="M332.24,134.68V91.777c0-5.553-5.107-10.055-11.407-10.055h-0.761
						c-6.3,0-11.407,4.502-11.407,10.055v42.902H332.24z"/>
					<rect x="316.65" y="65.634" style="fill:#E1FFFB;" width="7.605" height="28.154"/>
				</g>
				<g>
					<path style="fill:#E1FFFB;" d="M366.002,134.68V91.777c0-5.553-5.107-10.055-11.407-10.055h-0.76
						c-6.3,0-11.407,4.502-11.407,10.055v42.902H366.002z"/>
					<rect x="350.413" y="65.634" style="fill:#E1FFFB;" width="7.605" height="28.154"/>
				</g>
				<g>
					<path style="fill:#E1FFFB;" d="M399.764,134.68V91.777c0-5.553-5.107-10.055-11.407-10.055h-0.761
						c-6.3,0-11.407,4.502-11.407,10.055v42.902H399.764z"/>
					<rect x="384.175" y="65.634" style="fill:#E1FFFB;" width="7.605" height="28.154"/>
				</g>
				<g>
					<path style="fill:#E1FFFB;" d="M433.526,134.68V91.777c0-5.553-5.107-10.055-11.407-10.055h-0.76
						c-6.3,0-11.407,4.502-11.407,10.055v42.902H433.526z"/>
					<rect x="417.937" y="65.634" style="fill:#E1FFFB;" width="7.605" height="28.154"/>
				</g>
				<g>
					<path style="fill:#E1FFFB;" d="M467.288,134.68V91.777c0-5.553-5.107-10.055-11.407-10.055h-0.76
						c-6.3,0-11.407,4.502-11.407,10.055v42.902H467.288z"/>
					<rect x="451.699" y="65.634" style="fill:#E1FFFB;" width="7.605" height="28.154"/>
				</g>
			</g>
			<g>
				<g>
					<path style="fill:#E1FFFB;" d="M163.583,323.121v-43.066c0-5.575-5.127-10.094-11.451-10.094h-0.763
						c-6.324,0-11.451,4.519-11.451,10.094v43.066H163.583z"/>
					<rect x="147.934" y="253.812" style="fill:#E1FFFB;" width="7.634" height="28.262"/>
				</g>
				<g>
					<path style="fill:#E1FFFB;" d="M197.474,323.121v-43.066c0-5.575-5.127-10.094-11.451-10.094h-0.763
						c-6.324,0-11.451,4.519-11.451,10.094v43.066H197.474z"/>
					<rect x="181.825" y="253.812" style="fill:#E1FFFB;" width="7.634" height="28.262"/>
				</g>
				<g>
					<path style="fill:#E1FFFB;" d="M231.365,323.121v-43.066c0-5.575-5.127-10.094-11.451-10.094h-0.763
						c-6.324,0-11.451,4.519-11.451,10.094v43.066H231.365z"/>
					<rect x="215.716" y="253.812" style="fill:#E1FFFB;" width="7.634" height="28.262"/>
				</g>
				<g>
					<path style="fill:#E1FFFB;" d="M265.255,323.121v-43.066c0-5.575-5.126-10.094-11.45-10.094h-0.763
						c-6.324,0-11.451,4.519-11.451,10.094v43.066H265.255z"/>
					<rect x="249.606" y="253.812" style="fill:#E1FFFB;" width="7.634" height="28.262"/>
				</g>
				<g>
					<path style="fill:#E1FFFB;" d="M299.146,323.121v-43.066c0-5.575-5.127-10.094-11.451-10.094h-0.763
						c-6.324,0-11.451,4.519-11.451,10.094v43.066H299.146z"/>
					<rect x="283.497" y="253.812" style="fill:#E1FFFB;" width="7.634" height="28.262"/>
				</g>
				<g>
					<path style="fill:#E1FFFB;" d="M333.037,323.121v-43.066c0-5.575-5.127-10.094-11.451-10.094h-0.763
						c-6.324,0-11.451,4.519-11.451,10.094v43.066H333.037z"/>
					<rect x="317.388" y="253.812" style="fill:#E1FFFB;" width="7.634" height="28.262"/>
				</g>
				<g>
					<path style="fill:#E1FFFB;" d="M366.928,323.121v-43.066c0-5.575-5.127-10.094-11.451-10.094h-0.763
						c-6.324,0-11.451,4.519-11.451,10.094v43.066H366.928z"/>
					<rect x="351.279" y="253.812" style="fill:#E1FFFB;" width="7.634" height="28.262"/>
				</g>
				<g>
					<path style="fill:#E1FFFB;" d="M400.819,323.121v-43.066c0-5.575-5.126-10.094-11.45-10.094h-0.764
						c-6.324,0-11.45,4.519-11.45,10.094v43.066H400.819z"/>
					<rect x="385.17" y="253.812" style="fill:#E1FFFB;" width="7.634" height="28.262"/>
				</g>
				<g>
					<path style="fill:#E1FFFB;" d="M434.71,323.121v-43.066c0-5.575-5.127-10.094-11.451-10.094h-0.763
						c-6.324,0-11.451,4.519-11.451,10.094v43.066H434.71z"/>
					<rect x="419.061" y="253.812" style="fill:#E1FFFB;" width="7.634" height="28.262"/>
				</g>
				<g>
					<path style="fill:#E1FFFB;" d="M468.601,323.121v-43.066c0-5.575-5.127-10.094-11.451-10.094h-0.763
						c-6.324,0-11.451,4.519-11.451,10.094v43.066H468.601z"/>
					<rect x="452.952" y="253.812" style="fill:#E1FFFB;" width="7.634" height="28.262"/>
				</g>
			</g>
			<g>
				<g>
					<path style="fill:#E1FFFB;" d="M163.583,405.575v-43.066c0-5.575-5.127-10.094-11.451-10.094h-0.763
						c-6.324,0-11.451,4.519-11.451,10.094v43.066H163.583z"/>
					<rect x="147.934" y="336.266" style="fill:#E1FFFB;" width="7.634" height="28.262"/>
				</g>
				<g>
					<path style="fill:#E1FFFB;" d="M197.474,405.575v-43.066c0-5.575-5.127-10.094-11.451-10.094h-0.763
						c-6.324,0-11.451,4.519-11.451,10.094v43.066H197.474z"/>
					<rect x="181.825" y="336.266" style="fill:#E1FFFB;" width="7.634" height="28.262"/>
				</g>
				<g>
					<path style="fill:#E1FFFB;" d="M231.365,405.575v-43.066c0-5.575-5.127-10.094-11.451-10.094h-0.763
						c-6.324,0-11.451,4.519-11.451,10.094v43.066H231.365z"/>
					<rect x="215.716" y="336.266" style="fill:#E1FFFB;" width="7.634" height="28.262"/>
				</g>
				<g>
					<path style="fill:#E1FFFB;" d="M265.255,405.575v-43.066c0-5.575-5.126-10.094-11.45-10.094h-0.763
						c-6.324,0-11.451,4.519-11.451,10.094v43.066H265.255z"/>
					<rect x="249.606" y="336.266" style="fill:#E1FFFB;" width="7.634" height="28.262"/>
				</g>
				<g>
					<path style="fill:#E1FFFB;" d="M299.146,405.575v-43.066c0-5.575-5.127-10.094-11.451-10.094h-0.763
						c-6.324,0-11.451,4.519-11.451,10.094v43.066H299.146z"/>
					<rect x="283.497" y="336.266" style="fill:#E1FFFB;" width="7.634" height="28.262"/>
				</g>
				<g>
					<path style="fill:#E1FFFB;" d="M333.037,405.575v-43.066c0-5.575-5.127-10.094-11.451-10.094h-0.763
						c-6.324,0-11.451,4.519-11.451,10.094v43.066H333.037z"/>
					<rect x="317.388" y="336.266" style="fill:#E1FFFB;" width="7.634" height="28.262"/>
				</g>
				<g>
					<path style="fill:#E1FFFB;" d="M366.928,405.575v-43.066c0-5.575-5.127-10.094-11.451-10.094h-0.763
						c-6.324,0-11.451,4.519-11.451,10.094v43.066H366.928z"/>
					<rect x="351.279" y="336.266" style="fill:#E1FFFB;" width="7.634" height="28.262"/>
				</g>
				<g>
					<path style="fill:#E1FFFB;" d="M400.819,405.575v-43.066c0-5.575-5.126-10.094-11.45-10.094h-0.764
						c-6.324,0-11.45,4.519-11.45,10.094v43.066H400.819z"/>
					<rect x="385.17" y="336.266" style="fill:#E1FFFB;" width="7.634" height="28.262"/>
				</g>
				<g>
					<path style="fill:#E1FFFB;" d="M434.71,405.575v-43.066c0-5.575-5.127-10.094-11.451-10.094h-0.763
						c-6.324,0-11.451,4.519-11.451,10.094v43.066H434.71z"/>
					<rect x="419.061" y="336.266" style="fill:#E1FFFB;" width="7.634" height="28.262"/>
				</g>
				<g>
					<path style="fill:#E1FFFB;" d="M468.601,405.575v-43.066c0-5.575-5.127-10.094-11.451-10.094h-0.763
						c-6.324,0-11.451,4.519-11.451,10.094v43.066H468.601z"/>
					<rect x="452.952" y="336.266" style="fill:#E1FFFB;" width="7.634" height="28.262"/>
				</g>
			</g>
			<g>
				<rect x="143.569" y="165.631" style="fill:#E1FFFB;" width="43.759" height="61.903"/>
				<rect x="197.209" y="165.631" style="fill:#E1FFFB;" width="43.759" height="61.903"/>
				<rect x="250.85" y="165.631" style="fill:#E1FFFB;" width="43.759" height="61.903"/>
				<rect x="304.49" y="165.631" style="fill:#E1FFFB;" width="43.759" height="61.903"/>
				<rect x="358.131" y="165.631" style="fill:#E1FFFB;" width="43.759" height="61.903"/>
				<rect x="411.771" y="165.631" style="fill:#E1FFFB;" width="43.759" height="61.903"/>
			</g>
		</g>
	</g>
</g>
<g id="designed_by_freepik">
	<g>
		<g id="XMLID_319_">
			<g id="XMLID_338_">
				<path id="XMLID_346_" style="fill:#F5F3EE;" d="M260.104,465.465c-0.432,0.443-0.803,0.931-1.108,1.453l-0.465-0.241
					c-0.067-0.298-0.349-0.503-0.659-0.466c-0.331,0.039-0.568,0.339-0.529,0.67s0.339,0.568,0.67,0.529
					c0.065-0.008,0.127-0.026,0.184-0.052l0.451,0.234c-0.251,0.554-0.433,1.139-0.539,1.744l0.746,0.132
					c0.23-1.306,0.85-2.507,1.792-3.473L260.104,465.465z"/>
				<path id="XMLID_345_" style="fill:#F5F3EE;" d="M265.592,463.163c-0.171,0-0.341,0.006-0.51,0.017l-0.074-0.626
					c0.188-0.149,0.296-0.389,0.266-0.645c-0.046-0.393-0.402-0.674-0.795-0.628s-0.674,0.402-0.628,0.795
					c0.03,0.254,0.189,0.461,0.405,0.564l0.073,0.624c-0.714,0.116-1.403,0.332-2.06,0.646l0.327,0.684
					c0.934-0.447,1.942-0.673,2.995-0.673c0.496,0,0.993,0.053,1.475,0.158l0.161-0.741
					C266.693,463.222,266.142,463.163,265.592,463.163z"/>
				<path id="XMLID_344_" style="fill:#F5F3EE;" d="M272.194,465.711c0.331-0.04,0.566-0.341,0.525-0.672
					c-0.04-0.331-0.341-0.566-0.672-0.526c-0.309,0.038-0.535,0.304-0.53,0.609l-0.416,0.363c-0.418-0.43-0.89-0.813-1.408-1.139
					l-0.404,0.641c1.134,0.715,2.021,1.726,2.563,2.925l0.691-0.313c-0.251-0.554-0.568-1.072-0.942-1.545l0.402-0.351
					C272.065,465.716,272.129,465.719,272.194,465.711z"/>
				<path id="XMLID_343_" style="fill:#F5F3EE;" d="M265.044,473.372c-0.386,0.023-0.775,0.035-1.157,0.035
					c-0.88,0-1.733-0.061-2.478-0.179c-0.39-0.062-0.846-0.155-1.27-0.292c1.046,1.861,3.069,3.125,5.388,3.125
					c2.855,0,5.262-1.916,5.95-4.504c-0.682,0.449-1.505,0.825-2.459,1.123C267.839,473.047,266.464,473.286,265.044,473.372z"/>
				<path id="XMLID_339_" style="fill:#F5F3EE;" d="M265.592,464.68c-3.352,0-6.08,2.666-6.08,5.943
					c0,0.426,0.046,0.849,0.137,1.261c0.674,0.483,2.706,0.89,5.348,0.731c2.879-0.173,5.297-0.957,6.672-2.159
					c-0.005-0.195-0.021-0.39-0.045-0.582C271.244,466.913,268.65,464.68,265.592,464.68z M263.432,471.194
					c-1.02,0-1.85-0.83-1.85-1.85c0-1.02,0.83-1.85,1.85-1.85c1.02,0,1.85,0.83,1.85,1.85
					C265.282,470.365,264.452,471.194,263.432,471.194z M268.17,470.286c-0.75,0-1.36-0.61-1.36-1.36s0.61-1.361,1.36-1.361
					c0.75,0,1.361,0.61,1.361,1.361S268.92,470.286,268.17,470.286z"/>
			</g>
			<path id="XMLID_336_" style="fill:#F5F3EE;" d="M281.595,466.547c-0.295-0.116-0.806-0.309-1.382-0.237
				c-0.551,0.069-0.844,0.341-0.844,1.007v0.866h2.228v1.717h-2.228v5.455h-1.932v-5.455h-1.34v-1.717h1.34v-0.888
				c0-1.68,0.896-2.783,2.568-2.783c0.642,0,1.157,0.122,1.59,0.308L281.595,466.547z"/>
			<path id="XMLID_334_" style="fill:#F5F3EE;" d="M286.298,469.879c-0.177-0.03-0.358-0.046-0.526-0.046
				c-0.896,0-1.51,0.548-1.51,1.614v3.908h-1.932v-7.172h1.873v0.785c0.451-0.673,1.14-0.977,2.021-0.977
				c0.414,0,0.848,0.128,1.094,0.337L286.298,469.879z"/>
			<path id="XMLID_331_" style="fill:#F5F3EE;" d="M293.965,471.757c0,0.222-0.015,0.489-0.037,0.651h-5.085
				c0.207,1.036,0.933,1.488,1.843,1.488c0.622,0,1.295-0.252,1.813-0.688l1.132,1.243c-0.814,0.748-1.85,1.088-3.057,1.088
				c-2.198,0-3.723-1.495-3.723-3.753c0-2.258,1.48-3.797,3.627-3.797C292.544,467.99,293.958,469.522,293.965,471.757z
				 M288.851,471.091h3.175c-0.177-0.918-0.733-1.436-1.562-1.436C289.554,469.655,289.021,470.203,288.851,471.091z"/>
			<path id="XMLID_328_" style="fill:#F5F3EE;" d="M301.618,471.757c0,0.222-0.015,0.489-0.037,0.651h-5.085
				c0.207,1.036,0.932,1.488,1.843,1.488c0.622,0,1.295-0.252,1.813-0.688l1.132,1.243c-0.814,0.748-1.85,1.088-3.057,1.088
				c-2.198,0-3.723-1.495-3.723-3.753c0-2.258,1.48-3.797,3.627-3.797C300.197,467.99,301.611,469.522,301.618,471.757z
				 M296.504,471.091h3.175c-0.178-0.918-0.733-1.436-1.562-1.436C297.207,469.655,296.674,470.203,296.504,471.091z"/>
			<path id="XMLID_325_" style="fill:#F5F3EE;" d="M309.964,471.764c0,2.154-1.495,3.775-3.471,3.775
				c-0.962,0-1.643-0.378-2.109-0.933v3.708h-1.924v-10.133h1.887v0.792c0.466-0.585,1.155-0.984,2.139-0.984
				C308.469,467.99,309.964,469.61,309.964,471.764z M304.287,471.764c0,1.132,0.747,1.976,1.843,1.976
				c1.14,0,1.85-0.881,1.85-1.976c0-1.095-0.71-1.976-1.85-1.976C305.035,469.788,304.287,470.632,304.287,471.764z"/>
			<path id="XMLID_322_" style="fill:#F5F3EE;" d="M313.068,465.836c0,0.696-0.54,1.229-1.236,1.229
				c-0.696,0-1.229-0.533-1.229-1.229c0-0.696,0.533-1.243,1.229-1.243C312.527,464.592,313.068,465.14,313.068,465.836z
				 M312.809,475.354h-1.932v-7.172h1.932V475.354z"/>
			<path id="XMLID_320_" style="fill:#F5F3EE;" d="M316.032,470.736l2.702-2.554h2.368l-3.479,3.375l3.501,3.797h-2.376
				l-2.716-2.901v2.901H314.1v-10.658h1.932V470.736z"/>
		</g>
		<g>
			<path style="fill:#F5F3EE;" d="M184.412,475.289v-1.055c-0.527,0.718-1.391,1.23-2.388,1.23c-1.846,0-3.149-1.406-3.149-3.706
				c0-2.256,1.289-3.721,3.149-3.721c0.952,0,1.816,0.469,2.388,1.245v-3.765h1.099v9.77H184.412z M184.412,473.37v-3.208
				c-0.395-0.615-1.245-1.143-2.124-1.143c-1.421,0-2.27,1.172-2.27,2.739c0,1.567,0.85,2.724,2.27,2.724
				C183.168,474.483,184.017,473.986,184.412,473.37z"/>
			<path style="fill:#F5F3EE;" d="M186.932,471.744c0-2.051,1.465-3.706,3.486-3.706c2.139,0,3.398,1.67,3.398,3.794v0.279h-5.727
				c0.088,1.333,1.025,2.446,2.549,2.446c0.805,0,1.626-0.322,2.182-0.894l0.527,0.718c-0.703,0.703-1.655,1.084-2.812,1.084
				C188.44,475.465,186.932,473.956,186.932,471.744z M190.403,468.947c-1.509,0-2.256,1.274-2.314,2.358h4.643
				C192.718,470.25,192.015,468.947,190.403,468.947z"/>
			<path style="fill:#F5F3EE;" d="M194.607,474.351l0.571-0.791c0.469,0.542,1.362,1.011,2.329,1.011c1.084,0,1.67-0.513,1.67-1.216
				c0-1.714-4.38-0.659-4.38-3.281c0-1.098,0.952-2.036,2.636-2.036c1.201,0,2.051,0.454,2.622,1.026l-0.513,0.762
				c-0.424-0.513-1.201-0.894-2.109-0.894c-0.967,0-1.567,0.483-1.567,1.113c0,1.552,4.38,0.527,4.38,3.281
				c0,1.187-0.952,2.138-2.783,2.138C196.306,475.465,195.325,475.113,194.607,474.351z"/>
			<path style="fill:#F5F3EE;" d="M201.477,466.471c0-0.41,0.337-0.747,0.732-0.747c0.41,0,0.747,0.337,0.747,0.747
				c0,0.41-0.337,0.732-0.747,0.732C201.814,467.203,201.477,466.881,201.477,466.471z M201.667,475.289v-7.075h1.099v7.075H201.667
				z"/>
			<path style="fill:#F5F3EE;" d="M204.582,477.105l0.556-0.82c0.586,0.703,1.289,0.967,2.3,0.967c1.172,0,2.27-0.571,2.27-2.124
				v-1.011c-0.513,0.718-1.377,1.26-2.373,1.26c-1.845,0-3.149-1.377-3.149-3.662c0-2.27,1.289-3.677,3.149-3.677
				c0.952,0,1.802,0.469,2.373,1.245v-1.069h1.098v6.87c0,2.344-1.641,3.076-3.369,3.076
				C206.237,478.16,205.417,477.926,204.582,477.105z M209.709,473.253v-3.091c-0.381-0.615-1.23-1.143-2.109-1.143
				c-1.421,0-2.27,1.128-2.27,2.695c0,1.553,0.849,2.695,2.27,2.695C208.478,474.41,209.328,473.868,209.709,473.253z"/>
			<path style="fill:#F5F3EE;" d="M217.413,475.289v-4.629c0-1.245-0.63-1.641-1.582-1.641c-0.865,0-1.685,0.527-2.095,1.099v5.17
				h-1.099v-7.075h1.099v1.025c0.498-0.586,1.465-1.201,2.519-1.201c1.48,0,2.256,0.747,2.256,2.285v4.966H217.413z"/>
			<path style="fill:#F5F3EE;" d="M219.932,471.744c0-2.051,1.465-3.706,3.486-3.706c2.139,0,3.398,1.67,3.398,3.794v0.279h-5.727
				c0.088,1.333,1.025,2.446,2.549,2.446c0.806,0,1.626-0.322,2.183-0.894l0.527,0.718c-0.703,0.703-1.655,1.084-2.812,1.084
				C221.441,475.465,219.932,473.956,219.932,471.744z M223.404,468.947c-1.509,0-2.256,1.274-2.314,2.358h4.643
				C225.718,470.25,225.015,468.947,223.404,468.947z"/>
			<path style="fill:#F5F3EE;" d="M233.35,475.289v-1.055c-0.527,0.718-1.392,1.23-2.388,1.23c-1.846,0-3.149-1.406-3.149-3.706
				c0-2.256,1.289-3.721,3.149-3.721c0.952,0,1.817,0.469,2.388,1.245v-3.765h1.098v9.77H233.35z M233.35,473.37v-3.208
				c-0.396-0.615-1.245-1.143-2.124-1.143c-1.421,0-2.27,1.172-2.27,2.739c0,1.567,0.849,2.724,2.27,2.724
				C232.105,474.483,232.954,473.986,233.35,473.37z"/>
			<path style="fill:#F5F3EE;" d="M239.692,475.289v-9.77h1.098v3.765c0.572-0.776,1.421-1.245,2.388-1.245
				c1.845,0,3.149,1.465,3.149,3.721c0,2.299-1.304,3.706-3.149,3.706c-0.996,0-1.86-0.513-2.388-1.23v1.055H239.692z
				 M242.9,474.483c1.436,0,2.285-1.157,2.285-2.724c0-1.568-0.85-2.739-2.285-2.739c-0.864,0-1.728,0.527-2.109,1.143v3.208
				C241.171,473.986,242.036,474.483,242.9,474.483z"/>
			<path style="fill:#F5F3EE;" d="M247.528,477.061c0.161,0.073,0.425,0.117,0.601,0.117c0.483,0,0.805-0.161,1.055-0.747
				l0.469-1.069l-2.959-7.148h1.187l2.358,5.8l2.344-5.8h1.201l-3.545,8.51c-0.425,1.025-1.143,1.421-2.08,1.435
				c-0.234,0-0.601-0.044-0.805-0.103L247.528,477.061z"/>
		</g>
	</g>
</g>
<g id="objects">
	<g>
		<ellipse style="opacity:0.1;fill:#1C1D1E;" cx="174.693" cy="446.722" rx="77.333" ry="11"/>
		<path style="fill:#FFC1AC;" d="M127.416,327.899c0,0,1.284,78.361,13.923,111.81l8.093,1.631c0,0,10.479-84.459,9.189-106.373
			C157.33,313.053,127.416,327.899,127.416,327.899z"/>
		<path style="fill:#FFC1AC;" d="M175.207,334.68c0,0,17.95,72.669,40.928,102.118l6.712,1.758c0,0-6.925-106.141-19.349-115.313
			C191.075,314.07,175.207,334.68,175.207,334.68z"/>
		<path style="fill:#E2AD9F;" d="M127.416,325.602c0,0,0.185,11.234,1.099,27.005c8.421,2.288,18.388,4.353,29.254,5.362
			c0.774-10.754,1.168-19.916,0.851-25.299C157.33,310.756,127.416,325.602,127.416,325.602z"/>
		<path style="fill:#E2AD9F;" d="M203.498,323.242c-12.423-9.172-28.291,11.438-28.291,11.438s2.421,9.719,6.576,23.557
			c10.264-0.777,20.86-2.8,31.362-6.62C210.395,337.151,207.156,325.943,203.498,323.242z"/>
		<g>
			<path style="fill:#FFC1AC;" d="M149.955,153.143c0,0-29.25-12.238-31.897-21.733c-5.67-20.339-6.4-41.351-11.798-47.011
				c-4.765-4.996-16.844,33.898-5.087,59.793c9.134,20.115,54.812,43.693,61.02,30.171
				C172.386,152.159,149.955,153.143,149.955,153.143z"/>
			<path style="fill:#FFC1AC;" d="M96.122,121.511c0,0,1.485-44.13,2.53-44.254c1.045-0.124,1.977,6.823,1.977,6.823
				s-1.054-8.784,0.117-9.35c1.457-0.705,2.545,8.038,2.545,8.038s-0.197-8.956,0.992-8.769c0.639,0.101,1.932,8.786,1.932,8.786
				s-0.644-15.319,2.473-0.167c3.117,15.152,3.601,24.578,3.601,24.578L96.122,121.511z"/>
			<path style="fill:#FFC1AC;" d="M109.051,89.289c0,0,8.265-8.582-0.262-3.339C100.261,91.193,109.051,89.289,109.051,89.289z"/>
		</g>
		<path style="fill:#FF9C62;" d="M208.244,111.967c0,0,8.746,48.7-20.284,50.291c-27.032,1.481-23.499-13.162-17.509-22.202
			c3.316-5.005,13.016-17.247,15.393-19.258C192.512,115.153,208.244,111.967,208.244,111.967z"/>
		<path style="fill:#FF9C62;" d="M178.514,87.798c0,0-0.457-6.989-10.986-6.729c-17.385,0.431-39.24,32.391-31.389,54.942
			c6.047,17.369,33.12,25.341,33.778,23.615C170.575,157.901,178.514,87.798,178.514,87.798z"/>
		<path style="fill:#D18159;" d="M208.244,111.967c0,0-15.732,3.186-22.401,8.831c-0.976,0.826-3.188,3.378-5.684,6.445
			c-0.7,1.022-1.476,1.993-2.326,2.901c-2.923,3.698-5.842,7.587-7.383,9.912c-5.989,9.039-9.523,23.683,17.509,22.202
			C216.99,160.667,208.244,111.967,208.244,111.967z"/>
		<path style="fill:#D18159;" d="M157.021,137.689c-5.437,0-10.218-2.524-13.878-6.325c-0.554-0.318-1.1-0.641-1.631-0.972
			c-2.931-1.83-5.173-4.403-6.907-7.322c-0.324,4.46,0.112,8.856,1.534,12.941c6.047,17.369,33.12,25.341,33.778,23.615
			c0.26-0.683,1.663-12.088,3.261-25.615C168.194,137.181,163.074,137.689,157.021,137.689z"/>
		<path style="fill:#E2AD9F;" d="M193.671,160.588c-4.581-2.313-9.587-4.216-13.847-5.279l0.377-14.664l-13.165,2.343l0.306,11.696
			c0,0-23.283-0.675-24.373,12.199c-0.94,11.103,41.456,15.267,57.668,11.874C198.066,172.769,194.812,167.124,193.671,160.588z"/>
		<path style="fill:#FFC25F;" d="M143.495,214.598c0,0-36.035,40.475-41.777,116.275c0,0,66.613,33.306,124.612,2.871
			c0,0-11.55-76.226-30.716-115.309L143.495,214.598z"/>
		<path style="opacity:0.1;fill:#1C1D1E;" d="M209.397,255.998c-4.347,10.521-10.995,20.079-20.161,27.893
			c-16.363,13.95-38.802,21.084-60.003,22.667c-7.305,0.545-15.909,0.921-24.563,0.333c-1.298,7.553-2.313,15.547-2.952,23.981
			c0,0,66.613,33.306,124.612,2.871C226.33,333.744,220.175,293.134,209.397,255.998z"/>
		<path style="fill:#FFFFFF;" d="M133.301,174.39l6.604-27.277l21.411,6.753c0,0-1.396,9.679,8.235,11.647
			c9.63,1.968,16.273-8.419,16.273-8.419s25.031,3.849,26.566,33.37l-17.07,8.332l-4.594,22.396l-47.231-6.594l-1.005-12.356
			c0,0-12.633-10.911-2.297-25.267L133.301,174.39z"/>
		<path style="fill:#FFC1AC;" d="M195.536,208.773c0,0-10.055-35.716-1.108-39.281c8.946-3.565,15.129-5.747,23.504,43.372
			c0,0,1.336,21.921-16.682,18.046c-12.82-2.757-44.667-7.217-47.384-19.461C152.301,204.402,195.536,208.773,195.536,208.773z"/>
		<path style="fill:#FFFFFF;" d="M189.774,198.922l23.635-12.186c0,0-2.369-21.168-18.197-24.814
			C179.385,158.278,189.774,198.922,189.774,198.922z"/>
		<g>
			<polygon style="fill:#D3AC85;" points="146.796,182.143 145.361,234.973 156.559,242.726 195.607,236.696 195.607,183.578 
				157.707,187.311 			"/>
			<polygon style="fill:#BC9471;" points="146.796,182.143 145.361,234.973 156.559,242.726 157.707,187.311 			"/>
			<polygon style="fill:#9B7559;" points="146.796,182.143 185.271,178.123 195.607,183.578 157.707,187.311 			"/>
		</g>
		<g>
			<path style="fill:#FFC1AC;" d="M199.053,230.667c0,0-51.861-15.118-51.711-16.16c0.151-1.042,7.102-0.146,7.102-0.146
				s-8.757-1.253-9.002-2.531c-0.304-1.59,8.423-0.38,8.423-0.38s-8.702-2.125-8.214-3.225c0.262-0.591,8.986,0.405,8.986,0.405
				s-14.965-3.338,0.479-2.432c15.443,0.906,44.727,3.007,44.727,3.007L199.053,230.667z"/>
			<path style="fill:#FFC1AC;" d="M161.653,207.572c0,0-6.154-10.202-3.293-0.61C161.22,216.555,161.653,207.572,161.653,207.572z"
				/>
		</g>
		<g>
			<defs>
				<polygon id="SVGID_1_" points="146.796,182.143 138.757,131.322 213.122,149.698 195.607,183.578 157.707,187.311 				"/>
			</defs>
			<clipPath id="SVGID_00000090270621608211943210000016052223363299804047_">
				<use xlink:href="#SVGID_1_"  style="overflow:visible;"/>
			</clipPath>
			<g style="clip-path:url(#SVGID_00000090270621608211943210000016052223363299804047_);">
				<g>
					<path style="fill:#E5C07F;" d="M175.96,231.019c-0.231,4.43-4.009,7.835-8.439,7.604l0,0c-4.43-0.231-7.835-4.009-7.604-8.439
						l3.712-71.306c0.231-4.43,4.009-7.835,8.439-7.604l0,0c4.43,0.231,7.835,4.009,7.604,8.439L175.96,231.019z"/>
					<path style="fill:#FCD392;" d="M176.801,161.451c-0.046,0.875-2.521,1.458-5.529,1.301c-3.008-0.156-5.41-0.993-5.365-1.868
						c0.046-0.875,2.521-1.458,5.529-1.301C174.444,159.739,176.846,160.576,176.801,161.451z"/>
					<path style="fill:#FCD392;" d="M176.182,173.335c-0.046,0.875-2.521,1.458-5.529,1.301c-3.008-0.157-5.41-0.993-5.365-1.868
						c0.046-0.875,2.521-1.458,5.529-1.301C173.826,171.624,176.228,172.46,176.182,173.335z"/>
					<path style="fill:#FCD392;" d="M175.563,185.219c-0.045,0.875-2.521,1.458-5.529,1.301c-3.008-0.157-5.41-0.993-5.364-1.868
						c0.045-0.875,2.521-1.458,5.529-1.301C173.207,183.508,175.609,184.344,175.563,185.219z"/>
					<path style="fill:#FCD392;" d="M174.945,197.104c-0.046,0.875-2.521,1.458-5.53,1.301c-3.008-0.157-5.41-0.993-5.365-1.868
						c0.046-0.875,2.521-1.458,5.529-1.301C172.589,195.392,174.99,196.228,174.945,197.104z"/>
					<path style="fill:#FCD392;" d="M174.326,208.988c-0.045,0.875-2.521,1.458-5.529,1.301c-3.008-0.157-5.41-0.993-5.364-1.868
						c0.046-0.875,2.521-1.458,5.529-1.301C171.97,207.276,174.372,208.113,174.326,208.988z"/>
					<path style="fill:#FCD392;" d="M173.708,220.872c-0.046,0.875-2.521,1.458-5.529,1.301s-5.41-0.993-5.365-1.868
						c0.046-0.875,2.521-1.458,5.529-1.301C171.351,219.161,173.753,219.997,173.708,220.872z"/>
				</g>
				<path style="opacity:0.1;fill:#262029;" d="M172.067,151.274c-4.43-0.231-8.209,3.174-8.439,7.604l-3.712,71.306
					c-0.231,4.43,3.174,8.209,7.604,8.439c4.43,0.231,8.209-3.174,8.439-7.604l3.712-71.306
					C179.902,155.283,176.498,151.505,172.067,151.274z"/>
			</g>
			<path style="clip-path:url(#SVGID_00000090270621608211943210000016052223363299804047_);fill:#5BBC5B;" d="M176.834,189.345
				c0,0-2.78-18.743,0.613-19.205c0,0,2.714-0.369,2.671,6.087c0,0,1.474-12.871,4.384-13.497c2.91-0.626-0.262,15.01-0.262,15.01
				s2.674-4.05,3.959-3.073c1.285,0.977-4.467,16.273-4.467,16.273"/>
			<polygon style="clip-path:url(#SVGID_00000090270621608211943210000016052223363299804047_);fill:#8ED68E;" points="
				179.746,195.338 194.658,155.324 200.058,157.193 192.975,173.32 202.834,159.023 207.047,161.149 181.068,199.003 			"/>
			<g style="clip-path:url(#SVGID_00000090270621608211943210000016052223363299804047_);">
				<path style="fill:#E5C07F;" d="M172.064,224.759c0.432,4.415-2.797,8.345-7.212,8.777l0,0c-4.415,0.432-8.345-2.797-8.777-7.212
					l-6.955-71.063c-0.432-4.415,2.797-8.345,7.212-8.777l0,0c4.415-0.432,8.345,2.797,8.777,7.212L172.064,224.759z"/>
				<path style="fill:#FCD392;" d="M162.529,155.842c0.085,0.872-2.276,1.817-5.274,2.111c-2.998,0.293-5.498-0.176-5.583-1.048
					c-0.085-0.872,2.276-1.817,5.274-2.11C159.944,154.501,162.444,154.97,162.529,155.842z"/>
				<path style="fill:#FCD392;" d="M163.688,167.686c0.085,0.872-2.276,1.817-5.274,2.11s-5.498-0.176-5.583-1.048
					c-0.085-0.872,2.276-1.817,5.274-2.11C161.104,166.345,163.603,166.814,163.688,167.686z"/>
				<path style="fill:#FCD392;" d="M164.848,179.53c0.085,0.872-2.276,1.817-5.274,2.11c-2.998,0.293-5.498-0.176-5.583-1.048
					c-0.085-0.872,2.276-1.817,5.274-2.111C162.263,178.189,164.762,178.658,164.848,179.53z"/>
				<path style="fill:#FCD392;" d="M166.007,191.374c0.085,0.872-2.276,1.817-5.274,2.11c-2.998,0.293-5.498-0.176-5.583-1.048
					c-0.085-0.872,2.276-1.817,5.274-2.11C163.422,190.032,165.921,190.501,166.007,191.374z"/>
				<path style="fill:#FCD392;" d="M167.166,203.217c0.085,0.872-2.276,1.817-5.274,2.11c-2.998,0.293-5.498-0.176-5.583-1.048
					c-0.085-0.872,2.276-1.817,5.274-2.11C164.581,201.876,167.08,202.345,167.166,203.217z"/>
				<path style="fill:#FCD392;" d="M168.325,215.061c0.085,0.872-2.276,1.817-5.274,2.11c-2.998,0.294-5.498-0.176-5.583-1.048
					c-0.085-0.872,2.276-1.817,5.274-2.11C165.74,213.72,168.24,214.189,168.325,215.061z"/>
			</g>
		</g>
		<g>
			<path style="fill:#FFC1AC;" d="M178.079,89.9c14.664,4.12,24.448,14.205,18.735,34.54c-5.134,18.272-17.087,28.298-32.853,23.869
				c-18.887-5.306-20.628-22.905-16.752-36.7C151.952,94.726,162.29,85.464,178.079,89.9z"/>
		</g>
		<path style="fill:#FFC1AC;" d="M189.02,128.916c0,0,4.427-6.429,9.556-2.851c7.136,4.979-2.727,19.004-9.417,11.373
			C182.469,129.807,189.02,128.916,189.02,128.916z"/>
		<path style="fill:#FF9C62;" d="M196.36,127.63c0,0-3.453,10.541-5.977,9.014c-2.523-1.527,0.074-8.156,0.074-8.156
			s-28.278-11.911-21.03-39.073c0,0,1.068-3.565,6.002-4.634c3.489-0.756,8.91-0.264,17.252,3.618
			c20.142,9.371,16.51,30.007,12.787,39.034C205.47,127.433,199.719,123.264,196.36,127.63z"/>
		<path style="fill:#D18159;" d="M199.055,118.536c-5.257,4.107-10.553,4.913-16.836,4.994c4.448,3.355,8.239,4.958,8.239,4.958
			s-2.598,6.629-0.074,8.156c2.523,1.527,5.977-9.014,5.977-9.014c3.358-4.366,9.109-0.198,9.109-0.198
			c2.051-4.973,4.066-13.469,2.101-21.665C206.178,110.79,203.195,115.301,199.055,118.536z"/>
		<g>
			<path style="fill:#FF9C62;" d="M172.209,85.242c0,0-0.295,0.754-0.732,2.084c-0.432,1.331-1.006,3.239-1.528,5.544
				c-0.25,1.155-0.484,2.408-0.682,3.733c-0.186,1.327-0.316,2.729-0.371,4.172c-0.084,1.445,0.021,2.929,0.141,4.421
				c0.147,1.491,0.434,2.983,0.854,4.431c0.415,1.447,0.932,2.869,1.629,4.18l0.516,0.981c0.191,0.315,0.382,0.628,0.571,0.939
				c0.36,0.637,0.798,1.213,1.226,1.784c0.399,0.595,0.904,1.089,1.341,1.625c0.428,0.546,0.93,1.006,1.398,1.476
				c0.237,0.233,0.47,0.464,0.7,0.691c0.247,0.21,0.49,0.417,0.729,0.62c0.482,0.403,0.912,0.845,1.395,1.179
				c0.947,0.692,1.789,1.386,2.61,1.894c0.808,0.527,1.495,1.034,2.108,1.37c1.199,0.722,1.884,1.163,1.884,1.163
				s-0.771-0.224-2.121-0.666c-0.684-0.203-1.475-0.541-2.384-0.94c-0.929-0.363-1.911-0.908-2.989-1.506
				c-0.552-0.279-1.064-0.672-1.631-1.026c-0.277-0.187-0.559-0.378-0.845-0.571c-0.27-0.217-0.544-0.437-0.822-0.66
				c-0.553-0.452-1.142-0.896-1.669-1.438c-0.545-0.522-1.105-1.057-1.595-1.676c-0.511-0.6-1.034-1.211-1.481-1.895
				c-0.232-0.335-0.466-0.673-0.701-1.012c-0.2-0.361-0.402-0.725-0.604-1.089c-0.81-1.459-1.434-3.048-1.925-4.668
				c-0.44-1.637-0.724-3.307-0.852-4.956c-0.123-1.649-0.071-3.275,0.094-4.823c0.13-1.554,0.444-3.026,0.777-4.4
				c0.328-1.377,0.758-2.641,1.186-3.79c0.861-2.297,1.825-4.096,2.545-5.316C171.712,85.882,172.209,85.242,172.209,85.242z"/>
		</g>
		<path style="fill:#1C1D1E;" d="M151.682,116.145c-0.385,1.821-0.005,3.442,0.849,3.623c0.853,0.18,1.857-1.149,2.241-2.97
			c0.385-1.821,0.005-3.442-0.849-3.623C153.07,112.994,152.067,114.324,151.682,116.145z"/>
		<path style="fill:#1C1D1E;" d="M169.538,121.198c-0.385,1.82-0.005,3.442,0.849,3.623c0.853,0.18,1.857-1.149,2.242-2.97
			c0.385-1.82,0.004-3.442-0.849-3.623C170.926,118.048,169.923,119.378,169.538,121.198z"/>
		<g>
			<path style="fill:#DD9F8E;" d="M158.112,119.84c0.027,0.662-0.034,1.289-0.132,1.901c-0.083,0.618-0.224,1.213-0.385,1.8
				l-0.115,0.421l-0.673,0.14l-0.861,0.179c-0.288,0.066-0.571,0.133-0.837,0.211c-0.265,0.077-0.516,0.163-0.72,0.255
				c-0.208,0.09-0.345,0.194-0.39,0.223c-0.032,0.017-0.041,0.016-0.071,0.039c-0.016,0.027-0.036,0.086-0.035,0.172
				c0.013,0.09,0.027,0.198,0.07,0.319c0.038,0.116,0.093,0.249,0.149,0.381c0.132,0.259,0.285,0.535,0.452,0.818
				c0.168,0.282,0.345,0.573,0.515,0.889c-0.69-0.168-1.338-0.445-1.919-0.918c-0.291-0.245-0.581-0.521-0.789-0.963
				c-0.1-0.225-0.181-0.487-0.186-0.787c0.004-0.298,0.065-0.628,0.214-0.885c0.286-0.538,0.699-0.833,1.064-1.044
				c0.374-0.21,0.741-0.343,1.103-0.442c0.362-0.098,0.718-0.162,1.074-0.198c0.361-0.038,0.695-0.051,1.081-0.037l-0.788,0.561
				c0.288-0.536,0.596-1.064,0.962-1.569C157.248,120.797,157.637,120.301,158.112,119.84z"/>
		</g>
		<path style="fill:#FFFFFF;" d="M154.743,130.958l16.845,1.685C171.589,132.643,163.503,142.413,154.743,130.958z"/>
		<g>
			<path style="fill:#D18159;" d="M150.158,107.262c0,0,0.002-0.211,0.092-0.552c0.08-0.345,0.257-0.806,0.556-1.325
				c0.319-0.498,0.752-1.066,1.402-1.52c0.301-0.251,0.698-0.426,1.084-0.612c0.426-0.129,0.85-0.291,1.327-0.303
				c0.234-0.009,0.468-0.031,0.7-0.014c0.233,0.026,0.463,0.075,0.689,0.119c0.231,0.03,0.441,0.111,0.64,0.21
				c0.202,0.091,0.4,0.179,0.585,0.281c0.355,0.215,0.639,0.492,0.912,0.731c0.26,0.252,0.426,0.548,0.598,0.797
				c0.17,0.251,0.291,0.498,0.361,0.736c0.088,0.225,0.138,0.437,0.182,0.604c0.085,0.338,0.1,0.541,0.1,0.541
				s-0.212-0.062-0.524-0.189c-0.155-0.065-0.345-0.136-0.534-0.234c-0.188-0.104-0.422-0.181-0.657-0.263
				c-0.236-0.078-0.461-0.208-0.709-0.275c-0.25-0.054-0.488-0.149-0.727-0.204c-0.246-0.005-0.47-0.11-0.702-0.091
				c-0.115-0.002-0.228,0-0.34-0.02c-0.114-0.004-0.23,0.027-0.344,0.03c-0.23-0.025-0.468,0.084-0.715,0.09
				c-0.243,0.092-0.502,0.111-0.755,0.216c-0.517,0.148-1.027,0.379-1.505,0.557c-0.5,0.204-0.916,0.374-1.207,0.493
				C150.343,107.19,150.158,107.262,150.158,107.262z"/>
		</g>
		<g>
			<path style="fill:#D18159;" d="M166.046,108.624c0,0,0.111-0.253,0.408-0.622c0.151-0.179,0.336-0.408,0.586-0.621
				c0.244-0.224,0.534-0.467,0.886-0.675c0.342-0.233,0.745-0.43,1.186-0.618c0.448-0.158,0.931-0.333,1.454-0.405
				c1.04-0.211,2.191-0.144,3.29,0.085c0.529,0.173,1.09,0.281,1.571,0.534c0.483,0.242,0.983,0.448,1.388,0.756
				c0.414,0.295,0.808,0.584,1.155,0.882c0.328,0.322,0.618,0.646,0.879,0.943c0.276,0.28,0.48,0.584,0.647,0.864
				c0.178,0.267,0.312,0.519,0.424,0.72c0.222,0.406,0.32,0.655,0.32,0.655s-0.27-0.079-0.692-0.25
				c-0.435-0.152-0.976-0.46-1.66-0.724c-0.338-0.138-0.697-0.286-1.055-0.463c-0.374-0.147-0.768-0.283-1.155-0.452
				c-0.383-0.184-0.81-0.256-1.208-0.422c-0.403-0.156-0.828-0.216-1.237-0.346c-0.414-0.09-0.832-0.165-1.243-0.234
				c-0.413-0.032-0.823-0.112-1.225-0.108c-0.405-0.036-0.796-0.012-1.182-0.013c-0.376,0.032-0.757,0.027-1.099,0.078
				c-0.696,0.072-1.295,0.193-1.735,0.277C166.301,108.566,166.046,108.624,166.046,108.624z"/>
		</g>
		<path style="fill:#FFFFFF;" d="M139.75,436.408c0,0-26.84,9.431-21.547,11.699c7.924,3.396,31.758-2.268,31.758-2.268l0.445-7.283
			L139.75,436.408z"/>
		<path style="fill:#FFFFFF;" d="M216.134,436.798c0,0,0.81,5.796,1.276,6.573c3.155,5.258,10.004,10.562,15.533,10.562
			c4.02,0-2.134-13.772-10.523-20.365C222.42,433.568,222.258,436.858,216.134,436.798z"/>
	</g>
	<g>
		<ellipse style="opacity:0.1;fill:#1C1D1E;" cx="352.027" cy="446.722" rx="66.333" ry="11"/>
		<g>
			<path style="fill:#00344E;" d="M383.09,275.875c0,0,22.64,110.113-1.029,161.568l-13.378-1.029c0,0,6.054-71.908-9.249-128.657
				l-7.204,1.029c0,0-6.187,83.777-30.885,129.686l-11.32-1.029c0,0,15.437-95.706,7.204-159.51L383.09,275.875z"/>
			<g>
				<path style="fill:#ED6262;" d="M397.318,143.431l-14.047,30.103c-0.495,1.061,3.631,4.034,9.217,6.641
					c5.586,2.606,10.515,3.859,11.01,2.798l14.047-30.103L397.318,143.431z"/>
				<path style="fill:#959FAF;" d="M417.545,152.87c-0.495,1.061-5.425-0.191-11.01-2.798c-5.586-2.606-9.712-5.58-9.217-6.641
					s5.424,0.191,11.01,2.798C413.913,148.835,418.04,151.808,417.545,152.87z"/>
				<path style="fill:#C7D7EA;" d="M415.082,151.721c-0.375,0.803-4.104-0.145-8.329-2.117c-4.226-1.972-7.347-4.221-6.973-5.024
					c0.375-0.803,4.104,0.145,8.329,2.117C412.335,148.669,415.457,150.918,415.082,151.721z"/>
			</g>
			<polygon style="fill:#D19888;" points="381.91,201.909 386.533,243.993 392.431,243.515 395.141,223.429 390.518,204.779 			"/>
			<path style="fill:#BC8579;" d="M329.153,174.663c0.515,1.336,1.039,2.671,1.57,4.002h32.774c0.766-2.702,1.53-5.405,2.262-8.117
				c0.058-0.214,0.114-0.428,0.172-0.642c-6.078-0.975-11.146-0.83-11.146-0.83l0.397-15.152l-17.055-3.035l0.489,18.996
				c-3.143,0.784-6.602,1.93-10.092,3.318C328.747,173.68,328.961,174.164,329.153,174.663z"/>
			<g>
				<path style="fill:#D19888;" d="M371.458,123.202c4.017,14.296,4.919,33.356-14.655,38.855
					c-16.339,4.591-28.076-7.207-33.396-26.143c-5.921-21.074,0.862-30.939,16.059-35.209
					C355.828,96.107,366.542,105.706,371.458,123.202z"/>
			</g>
			<path style="fill:#D19888;" d="M329.121,139.249c0,0-3.251-7.407-9.17-4.766c-8.235,3.674-0.933,19.875,7.365,13.413
				C335.614,141.434,329.121,139.249,329.121,139.249z"/>
			<g>
				<path style="fill:#A37166;" d="M358.237,126.907c0,0,1.004,0.548,2.25,1.674c0.629,0.556,1.318,1.255,1.986,2.074
					c0.671,0.815,1.327,1.748,1.851,2.787c0.52,1.035,0.937,2.176,0.984,3.379c0.048,0.591-0.051,1.206-0.261,1.746
					c-0.179,0.557-0.565,0.99-0.918,1.315c-0.185,0.157-0.381,0.277-0.559,0.393c-0.189,0.098-0.376,0.165-0.544,0.237
					c-0.339,0.133-0.654,0.172-0.897,0.223c-0.507,0.041-0.784,0.041-0.784,0.041s0.245-0.16,0.653-0.399
					c0.191-0.143,0.43-0.3,0.665-0.502c0.238-0.203,0.462-0.456,0.656-0.735c0.164-0.301,0.319-0.608,0.358-0.974
					c0.055-0.359,0.032-0.752-0.045-1.177c-0.058-0.423-0.236-0.864-0.392-1.317c-0.187-0.45-0.377-0.913-0.622-1.367
					c-0.223-0.46-0.486-0.91-0.735-1.361c-0.267-0.442-0.509-0.894-0.778-1.314c-0.532-0.858-1.029-1.658-1.454-2.344
					C358.784,127.904,358.237,126.907,358.237,126.907z"/>
			</g>
			<g>
				<path style="fill:#1C1D1E;" d="M370.422,120.703c0,0-0.241-0.038-0.61-0.095c-0.179-0.037-0.406-0.062-0.633-0.116
					c-0.229-0.052-0.501-0.079-0.756-0.142c-0.267-0.041-0.534-0.11-0.807-0.151c-0.27-0.051-0.54-0.101-0.798-0.132
					c-0.26-0.063-0.504-0.037-0.736-0.098c-0.222,0.028-0.446-0.044-0.638-0.006c-0.098,0.006-0.199-0.013-0.297-0.008
					c-0.094,0.023-0.191,0.022-0.291,0.025c-0.203-0.017-0.401,0.082-0.633,0.076c-0.224,0.047-0.456,0.133-0.709,0.177
					c-0.251,0.057-0.485,0.182-0.736,0.254c-0.25,0.077-0.507,0.148-0.714,0.249c-0.207,0.097-0.424,0.164-0.598,0.227
					c-0.359,0.121-0.604,0.184-0.604,0.184s-0.032-0.23-0.019-0.622c0.011-0.193,0.02-0.438,0.073-0.698
					c0.031-0.274,0.113-0.566,0.255-0.868c0.144-0.3,0.279-0.647,0.525-0.961c0.263-0.302,0.539-0.643,0.906-0.924
					c0.192-0.137,0.402-0.257,0.617-0.381c0.211-0.132,0.436-0.244,0.692-0.303c0.249-0.073,0.502-0.15,0.761-0.204
					c0.258-0.047,0.523-0.038,0.786-0.049c0.537-0.034,1.021,0.119,1.504,0.232c0.44,0.175,0.89,0.348,1.232,0.607
					c0.737,0.467,1.222,1.077,1.57,1.622c0.326,0.57,0.507,1.084,0.583,1.475c0.05,0.181,0.052,0.361,0.064,0.464
					C370.419,120.645,370.422,120.703,370.422,120.703z"/>
			</g>
			<g>
				<path style="fill:#1C1D1E;" d="M352.174,123.457c0,0-0.283-0.031-0.777-0.085c-0.483-0.033-1.124-0.098-1.847-0.102
					c-0.354-0.021-0.74,0.005-1.121,0.004c-0.389,0.029-0.778,0.029-1.178,0.086c-0.397,0.015-0.798,0.113-1.201,0.152
					c-0.401,0.08-0.809,0.156-1.215,0.246c-0.404,0.128-0.82,0.182-1.224,0.326c-0.397,0.159-0.828,0.211-1.221,0.38
					c-0.396,0.154-0.805,0.268-1.197,0.395c-0.38,0.154-0.756,0.288-1.118,0.405c-0.371,0.103-0.705,0.225-1.005,0.338
					c-0.302,0.109-0.589,0.186-0.823,0.255c-0.472,0.136-0.782,0.189-0.782,0.189s0.072-0.288,0.267-0.749
					c0.206-0.45,0.467-1.147,1.001-1.798c0.259-0.334,0.555-0.689,0.886-1.052c0.355-0.335,0.764-0.661,1.198-0.988
					c0.208-0.178,0.451-0.312,0.703-0.444c0.247-0.139,0.504-0.272,0.766-0.396c0.512-0.278,1.117-0.399,1.686-0.585
					c1.184-0.247,2.433-0.302,3.551-0.044c0.562,0.093,1.079,0.3,1.554,0.491c0.466,0.227,0.892,0.452,1.247,0.725
					c0.726,0.51,1.194,1.103,1.476,1.528C352.087,123.163,352.174,123.457,352.174,123.457z"/>
			</g>
			<g>
				<path style="fill:#A37166;" d="M347.716,146.993c0,0,1.199,0.014,2.92,0.074c0.863,0.016,1.858,0.048,2.914,0.047
					c1.055,0,2.172-0.027,3.271-0.115c0.557-0.006,1.09-0.125,1.632-0.162c0.53-0.088,1.052-0.174,1.557-0.257
					c0.48-0.152,0.973-0.24,1.422-0.376c0.428-0.175,0.859-0.304,1.249-0.452c0.36-0.192,0.709-0.353,1.025-0.499
					c0.32-0.142,0.544-0.34,0.767-0.466c0.429-0.271,0.699-0.425,0.699-0.425s-0.142,0.254-0.432,0.697
					c-0.157,0.207-0.305,0.521-0.578,0.767c-0.261,0.26-0.563,0.558-0.913,0.867c-0.367,0.275-0.792,0.544-1.25,0.822
					c-0.467,0.249-0.983,0.466-1.523,0.684c-0.551,0.153-1.119,0.357-1.711,0.468c-0.591,0.09-1.197,0.22-1.8,0.24
					c-0.605,0.036-1.21,0.069-1.802,0.031c-0.594-0.002-1.17-0.086-1.727-0.147c-0.559-0.046-1.086-0.185-1.588-0.276
					c-0.5-0.109-0.966-0.238-1.392-0.369C348.747,147.626,347.716,146.993,347.716,146.993z"/>
			</g>
			<path style="fill:#1C1D1E;" d="M319.74,134.081c0,0,4.304,0.478,7.413,9.086l4.304-2.152l-4.304-12.912
				c0,0,5.5-2.152,1.196-12.434c0,0,13.869,3.348,23.672-1.913l-5.739-2.869c0,0,17.694,1.674,24.629-5.021l-3.348,0.239
				c0,0,8.608-6.217,3.826-14.825c0,0-0.956,4.065-3.587,5.739c0,0,4.065-4.065-0.956-9.804c0,0-3.108,5.739-5.978,6.456
				c-2.869,0.717-30.846-12.673-40.171,9.086c0,0-9.086-0.956-10.76,8.847C308.263,121.407,319.74,134.081,319.74,134.081z"/>
			<path style="fill:#F5F3EE;" d="M338.137,169.408c0,0-26.526,1.895-33.222,18.154l-4.304,27.737l2.483,0.438l13.777,2.431
				l-2.71,66.633c0,0,40.171,15.303,72.212,2.869c0,0,3.188-86.719-4.464-105.369c0,0-0.956-12.434-23.433-13.39
				C358.477,168.911,350.794,179.947,338.137,169.408z"/>
			<path style="fill:#D19888;" d="M321.653,221.516l-0.478,9.086c0,0,30.607,8.13,43.997,4.782
				c13.39-3.348,16.26,8.608,1.435,11.956c-14.825,3.348-44.953,6.695-62.648,0.478c0,0-2.686-16.34-0.865-32.081l18.559,2.431
				V221.516z"/>
			<g>
				<path style="fill:#D19888;" d="M375.73,240.812c0,0,8.924-1.473,8.342-2.723c-0.313-0.672-9.196-0.452-9.196-0.452
					s20.137-2.778-0.487-2.726c-7.022,0.017-51.349-4.395-60.387-4.308c2.056,4.472,0.552,4.586,0,9.086
					c-0.128,1.039-5.007,7.6-5.26,8.608c25.824,9.565,72.756-2.784,72.691-3.348c-0.136-1.164-6.652-0.946-6.652-0.946
					s8.943-0.503,9.348-1.904C384.63,240.356,375.73,240.812,375.73,240.812z"/>
				<path style="fill:#D19888;" d="M365.596,236.031c0,0,8.826-10.933,4.424-0.473C365.619,246.018,365.596,236.031,365.596,236.031
					z"/>
			</g>
			<g>
				<path style="fill:#1C1D1E;" d="M343.173,134.638c0,0,0.698,0.026,1.614,0.16c0.443,0.059,0.96,0.127,1.514,0.2
					c0.528,0.068,1.072,0.112,1.513,0.073c0.454-0.049,0.673-0.128,0.888-0.341c0.103-0.118,0.218-0.278,0.292-0.478
					c0.086-0.189,0.158-0.408,0.212-0.616c0.106-0.418,0.184-0.816,0.239-1.095c0.057-0.282,0.105-0.454,0.105-0.454
					s0.108,0.133,0.269,0.386c0.157,0.253,0.363,0.629,0.485,1.145c0.065,0.257,0.122,0.55,0.109,0.885
					c0,0.329-0.072,0.713-0.257,1.101c-0.193,0.383-0.521,0.764-0.934,0.996c-0.406,0.234-0.841,0.332-1.243,0.376
					c-0.805,0.057-1.505-0.114-2.104-0.341c-0.601-0.229-1.105-0.525-1.504-0.826C343.561,135.228,343.173,134.638,343.173,134.638z
					"/>
			</g>
			<g>
				<path style="fill:#1C1D1E;" d="M363.578,129.856c0,0,0.698,0.026,1.614,0.16c0.443,0.059,0.96,0.127,1.514,0.2
					c0.528,0.068,1.072,0.112,1.512,0.073c0.454-0.049,0.673-0.128,0.888-0.341c0.103-0.118,0.218-0.278,0.292-0.478
					c0.086-0.189,0.157-0.408,0.212-0.616c0.106-0.418,0.184-0.816,0.239-1.095c0.057-0.282,0.105-0.454,0.105-0.454
					s0.108,0.133,0.269,0.386c0.157,0.254,0.363,0.629,0.485,1.145c0.065,0.257,0.122,0.55,0.108,0.885
					c0,0.329-0.072,0.713-0.257,1.101c-0.193,0.383-0.521,0.764-0.934,0.997c-0.406,0.234-0.841,0.332-1.243,0.376
					c-0.805,0.057-1.505-0.114-2.103-0.341c-0.601-0.229-1.105-0.525-1.504-0.826C363.966,130.445,363.578,129.856,363.578,129.856z
					"/>
			</g>
			<path style="fill:#F5F3EE;" d="M383.823,212.43l10.043-4.304c0,0-5.26-28.694-17.694-33.954S383.823,212.43,383.823,212.43z"/>
			<path style="fill:#D19888;" d="M387.648,230.762c0,0,6.377-21.634,13.709-40.171c2.444-6.179,4.089-16.381,6.847-19.501
				c11.031-12.48,6.835,44.307-1.443,59.769C398.482,246.321,387.378,249.417,387.648,230.762z"/>
			<path style="fill:#D19888;" d="M412.516,169.868c0,0-18.332-14.188-3.348,1.116c0,0-19.129-11.477-2.072,2.551
				c0,0-18.491-9.086-1.753,2.71c0,0-18.81-6.376-1.116,3.507c0,0,7.811,4.145,7.811,3.666
				C412.038,182.939,415.226,172.1,412.516,169.868z"/>
			<path style="fill:#D19888;" d="M409.808,171.588c0,0,0.953-8.974,2.048-8.382c1.095,0.592,1.268,9.502,1.268,9.502l-3.69-0.556"
				/>
			<g>
				<path style="fill:#ED6262;" d="M325.645,245.911l2.026,27.208c0.072,0.959,4.222,1.432,9.27,1.056s9.083-1.458,9.011-2.417
					l-2.026-27.208L325.645,245.911z"/>
				<path style="fill:#959FAF;" d="M343.927,244.549c0.071,0.959-3.963,2.042-9.011,2.417c-5.048,0.376-9.199-0.097-9.27-1.056
					c-0.071-0.959,3.963-2.042,9.011-2.417C339.705,243.117,343.855,243.59,343.927,244.549z"/>
				<path style="fill:#C7D7EA;" d="M341.701,244.715c0.054,0.726-2.998,1.544-6.817,1.829c-3.819,0.285-6.959-0.073-7.013-0.799
					c-0.054-0.726,2.998-1.544,6.817-1.829C338.507,243.632,341.647,243.989,341.701,244.715z"/>
			</g>
			<path style="opacity:0.3;fill:#1C1D1E;" d="M343.927,244.549L343.927,244.549L343.927,244.549
				c-0.072-0.959-4.222-1.432-9.27-1.056c-5.048,0.376-9.083,1.458-9.011,2.418l0,0l0,0l0,0l0,0l2.026,27.208
				c0.071,0.959,4.222,1.432,9.27,1.056s9.083-1.458,9.011-2.417L343.927,244.549z"/>
			<g>
				<path style="fill:#ED6262;" d="M317.096,245.554l-5.427,26.738c-0.191,0.943,3.675,2.523,8.636,3.53
					c4.961,1.007,9.138,1.059,9.329,0.117l5.427-26.738L317.096,245.554z"/>
				<path style="fill:#959FAF;" d="M335.062,249.201c-0.191,0.943-4.368,0.89-9.329-0.117c-4.961-1.007-8.828-2.587-8.637-3.53
					c0.191-0.943,4.368-0.89,9.329,0.117C331.387,246.678,335.253,248.258,335.062,249.201z"/>
				<path style="fill:#C7D7EA;" d="M332.875,248.757c-0.145,0.713-3.305,0.674-7.058-0.088s-6.678-1.957-6.534-2.671
					c0.145-0.713,3.305-0.674,7.058,0.088C330.094,246.848,333.019,248.044,332.875,248.757z"/>
			</g>
			<polygon style="fill:#8ED68E;" points="366.219,263.163 404.605,235.329 408.449,240.376 391.986,250.934 409.892,243.775 
				412.48,248.331 365.188,267.364 			"/>
			<polygon style="fill:#72BA72;" points="356.747,266.273 389.211,231.714 393.936,235.948 379.754,249.415 395.993,239.015 
				399.392,243.003 356.525,270.593 			"/>
			<polygon style="fill:#72BA72;" points="339.547,286.194 343.905,238.979 350.235,239.414 347.328,258.754 353.742,240.568 
				358.875,241.624 342.028,289.738 			"/>
			<g>
				<g>
					<path style="fill:#FFA95D;" d="M384.936,262.054c-0.652-1.061-1.757-1.761-2.995-1.896l-35.027-3.808
						c-0.238-0.06-0.485-0.101-0.732-0.115l-0.789-0.05l-0.786-0.086c-0.244-0.029-0.484-0.029-0.723-0.011l-35.18-2.239
						c-1.242-0.079-2.451,0.422-3.275,1.356c-0.823,0.933-1.167,2.196-0.932,3.418l6.91,35.99c0.339,1.769,1.812,3.096,3.607,3.251
						l53.186,4.581c1.794,0.155,3.472-0.901,4.109-2.586l12.962-34.279C385.711,264.418,385.588,263.115,384.936,262.054z"/>
					<path style="fill:#FFC25F;" d="M391.242,262.593c-0.302,3.509-2.812,6.158-5.605,5.917l-83.906-7.226
						c-2.794-0.241-4.813-3.28-4.511-6.788l0,0c0.302-3.509,2.812-6.158,5.605-5.917l83.906,7.226
						C389.524,256.046,391.544,259.085,391.242,262.593L391.242,262.593z"/>
					<path style="opacity:0.3;fill:#030202;" d="M318.512,287.789c-0.139,1.612-1.531,2.808-3.11,2.672l0,0
						c-1.579-0.136-2.746-1.553-2.608-3.165l1.508-17.51c0.139-1.612,1.531-2.808,3.11-2.672l0,0
						c1.579,0.136,2.746,1.553,2.607,3.164L318.512,287.789z"/>
					<path style="opacity:0.3;fill:#030202;" d="M331.615,288.918c-0.139,1.612-1.531,2.808-3.11,2.672l0,0
						c-1.579-0.136-2.746-1.553-2.607-3.165l1.508-17.51c0.139-1.612,1.531-2.808,3.11-2.672l0,0
						c1.579,0.136,2.746,1.553,2.607,3.165L331.615,288.918z"/>
					<path style="opacity:0.3;fill:#030202;" d="M344.717,290.046c-0.139,1.612-1.531,2.808-3.11,2.672l0,0
						c-1.579-0.136-2.746-1.553-2.608-3.165l1.508-17.51c0.139-1.612,1.531-2.808,3.11-2.672l0,0
						c1.579,0.136,2.746,1.553,2.607,3.165L344.717,290.046z"/>
					<path style="opacity:0.3;fill:#030202;" d="M357.82,291.175c-0.139,1.612-1.531,2.808-3.11,2.672l0,0
						c-1.579-0.136-2.746-1.553-2.607-3.164l1.508-17.51c0.139-1.612,1.531-2.808,3.11-2.672l0,0
						c1.579,0.136,2.746,1.553,2.607,3.164L357.82,291.175z"/>
					<path style="opacity:0.3;fill:#030202;" d="M370.923,292.303c-0.139,1.612-1.531,2.808-3.11,2.672l0,0
						c-1.579-0.136-2.746-1.553-2.607-3.165l1.508-17.51c0.139-1.612,1.531-2.808,3.11-2.672l0,0
						c1.579,0.136,2.746,1.553,2.608,3.165L370.923,292.303z"/>
				</g>
				<path style="fill:#616361;" d="M385.367,259.503c0.924,1.099,0.457,3.013-1.043,4.275l0,0c-1.5,1.262-3.466,1.395-4.39,0.297
					l-25.345-30.122c-0.924-1.099-0.457-3.013,1.043-4.275l0,0c1.5-1.262,3.466-1.395,4.39-0.297L385.367,259.503z"/>
				<path style="fill:#616361;" d="M334.293,227.165c1.099-0.924,3.013-0.458,4.275,1.043l0,0c1.262,1.5,1.395,3.466,0.297,4.39
					l-30.122,25.345c-1.098,0.924-3.012,0.457-4.275-1.043l0,0c-1.262-1.5-1.395-3.466-0.297-4.39L334.293,227.165z"/>
				<path style="fill:#494949;" d="M309.624,254.444c-0.125,1.447-1.399,2.519-2.846,2.395s-2.52-1.399-2.395-2.846
					c0.125-1.447,1.399-2.52,2.846-2.395C308.676,251.723,309.748,252.997,309.624,254.444z"/>
				<path style="fill:#494949;" d="M384.429,260.887c-0.125,1.447-1.399,2.52-2.846,2.395c-1.447-0.125-2.52-1.399-2.395-2.846
					c0.125-1.447,1.399-2.52,2.846-2.395C383.481,258.165,384.553,259.439,384.429,260.887z"/>
			</g>
			<path style="fill:#F5F3EE;" d="M310.024,437.443l-0.964,9.318c0,0,72.391,14.028,12.284-8.289L310.024,437.443z"/>
			<path style="fill:#F5F3EE;" d="M369.962,437.443l-0.964,9.318c0,0,72.391,14.028,12.284-8.289L369.962,437.443z"/>
			<polygon style="fill:#195066;" points="308.502,437.676 322.131,438.871 326.674,430.502 309.458,427.394 			"/>
			<polygon style="fill:#195066;" points="368.28,437.436 381.91,438.632 386.453,430.263 369.237,427.155 			"/>
		</g>
	</g>
	<g>
		<defs>
			<rect id="SVGID_00000038396074478544706510000006812311484745886650_" y="14.055" width="97.36" height="440"/>
		</defs>
		<clipPath id="SVGID_00000152247623564424690650000007460709247060899981_">
			<use xlink:href="#SVGID_00000038396074478544706510000006812311484745886650_"  style="overflow:visible;"/>
		</clipPath>
		<polygon style="clip-path:url(#SVGID_00000152247623564424690650000007460709247060899981_);fill:#E0DCD1;" points="
			-23.64,346.055 54.36,340.055 53.36,37.055 -23.64,37.055 		"/>
		<polygon style="clip-path:url(#SVGID_00000152247623564424690650000007460709247060899981_);fill:#F5F3EE;" points="
			88.458,46.156 -27.036,46.156 -27.036,33.3 87.458,32.157 		"/>
		<polygon style="clip-path:url(#SVGID_00000152247623564424690650000007460709247060899981_);fill:#F5F3EE;" points="
			-27.036,139.157 88.458,139.157 88.458,152.013 -26.036,153.156 		"/>
		<polygon style="clip-path:url(#SVGID_00000152247623564424690650000007460709247060899981_);fill:#F5F3EE;" points="
			86.854,447.388 -28.64,447.388 -27.036,338.381 87.458,337.157 		"/>
		<polygon style="clip-path:url(#SVGID_00000152247623564424690650000007460709247060899981_);fill:#E0DCD1;" points="
			86.854,447.388 -28.64,447.388 -27.036,356.84 87.458,355.823 		"/>
		<g style="clip-path:url(#SVGID_00000152247623564424690650000007460709247060899981_);">
			<polygon style="fill:#ED6262;" points="80.616,138.555 31.36,138.555 31.36,74.042 82.36,74.042 			"/>
			<rect x="31.36" y="74.042" style="fill:#BF5151;" width="15.256" height="64.513"/>
		</g>
		<g style="clip-path:url(#SVGID_00000152247623564424690650000007460709247060899981_);">
			<polygon style="fill:#ED6262;" points="36.696,138.555 -10.652,138.555 -10.652,76.542 38.372,76.542 			"/>
			<rect x="-10.652" y="76.542" style="fill:#BF5151;" width="14.665" height="62.013"/>
		</g>
		
			<path style="clip-path:url(#SVGID_00000152247623564424690650000007460709247060899981_);fill:none;stroke:#F5F3EE;stroke-width:2;stroke-miterlimit:10;" d="
			M41.027,73.722c0,0,0,19.667,19.667,19.667c17.667,0,18.667-19.346,18.667-19.346"/>
		
			<path style="clip-path:url(#SVGID_00000152247623564424690650000007460709247060899981_);fill:none;stroke:#F5F3EE;stroke-width:2;stroke-miterlimit:10;" d="
			M-3.973,76.388c0,0,0,19.667,19.667,19.667c17.667,0,18.667-19.346,18.667-19.346"/>
		<g style="clip-path:url(#SVGID_00000152247623564424690650000007460709247060899981_);">
			<path style="fill:#FFC25F;" d="M30.969,189.632l-0.085,45.069c-0.003,1.589,8.418,2.893,18.809,2.912
				c10.391,0.02,18.817-1.252,18.82-2.841l0.085-45.069L30.969,189.632z"/>
			<path style="fill:#959FAF;" d="M68.598,189.703c-0.003,1.589-8.429,2.861-18.82,2.841c-10.391-0.02-18.812-1.323-18.809-2.912
				c0.003-1.589,8.429-2.861,18.82-2.841S68.601,188.114,68.598,189.703z"/>
			<path style="fill:#C7D7EA;" d="M64.017,189.694c-0.002,1.202-6.377,2.164-14.238,2.149c-7.861-0.015-14.232-1.001-14.229-2.203
				c0.002-1.202,6.377-2.164,14.238-2.15C57.648,187.506,64.019,188.492,64.017,189.694z"/>
		</g>
		<g style="clip-path:url(#SVGID_00000152247623564424690650000007460709247060899981_);">
			<path style="fill:#FFC25F;" d="M-10.582,189.632l-0.085,45.069c-0.003,1.589,8.418,2.893,18.809,2.912
				c10.391,0.02,18.817-1.252,18.82-2.841l0.085-45.069L-10.582,189.632z"/>
			<path style="fill:#959FAF;" d="M27.047,189.703c-0.003,1.589-8.429,2.861-18.82,2.841c-10.391-0.02-18.812-1.323-18.809-2.912
				c0.003-1.589,8.429-2.861,18.82-2.841S27.05,188.114,27.047,189.703z"/>
			<path style="fill:#C7D7EA;" d="M22.466,189.694c-0.002,1.202-6.377,2.164-14.238,2.149c-7.861-0.015-14.232-1.001-14.229-2.203
				c0.002-1.202,6.377-2.164,14.238-2.15S22.468,188.492,22.466,189.694z"/>
		</g>
		<polygon style="clip-path:url(#SVGID_00000152247623564424690650000007460709247060899981_);fill:#F5F3EE;" points="
			88.458,249.156 -27.036,249.156 -27.036,236.3 87.458,235.157 		"/>
		<g style="clip-path:url(#SVGID_00000152247623564424690650000007460709247060899981_);">
			<path style="fill:#225E70;" d="M74.536,337.575v-47.415c0-6.138-5.644-11.113-12.607-11.113h-0.84
				c-6.963,0-12.607,4.975-12.607,11.113v47.415H74.536z"/>
			<rect x="57.307" y="261.266" style="fill:#225E70;" width="8.405" height="31.116"/>
		</g>
		<g style="clip-path:url(#SVGID_00000152247623564424690650000007460709247060899981_);">
			<path style="fill:#195066;" d="M45.536,337.575v-47.415c0-6.138-5.644-11.113-12.607-11.113h-0.84
				c-6.963,0-12.607,4.975-12.607,11.113v47.415H45.536z"/>
			<rect x="28.307" y="261.266" style="fill:#195066;" width="8.405" height="31.116"/>
		</g>
		<g style="clip-path:url(#SVGID_00000152247623564424690650000007460709247060899981_);">
			<path style="fill:#00344E;" d="M15.536,337.575v-47.415c0-6.138-5.644-11.113-12.607-11.113h-0.84
				c-6.963,0-12.607,4.975-12.607,11.113v47.415H15.536z"/>
			<rect x="-1.693" y="261.266" style="fill:#00344E;" width="8.405" height="31.116"/>
		</g>
	</g>
	<g>
		<defs>
			<rect id="SVGID_00000147209308377587554580000014501364648140902589_" x="420.36" y="97.055" width="79.64" height="364"/>
		</defs>
		<clipPath id="SVGID_00000060023192462209617020000004035802994691140739_">
			<use xlink:href="#SVGID_00000147209308377587554580000014501364648140902589_"  style="overflow:visible;"/>
		</clipPath>
		<g style="clip-path:url(#SVGID_00000060023192462209617020000004035802994691140739_);">
			<g>
				<path style="fill:#ED6262;" d="M435.243,236.35l-0.997,33.683c-0.035,1.187,5.003,2.3,11.253,2.485
					c6.25,0.185,11.345-0.628,11.38-1.815l0.997-33.683L435.243,236.35z"/>
				<path style="fill:#959FAF;" d="M457.875,237.02c-0.035,1.187-5.13,2-11.38,1.815c-6.25-0.185-11.288-1.297-11.252-2.485
					c0.035-1.187,5.13-2,11.38-1.815C452.872,234.72,457.91,235.833,457.875,237.02z"/>
				<path style="fill:#C7D7EA;" d="M455.12,236.939c-0.027,0.898-3.881,1.513-8.609,1.373c-4.728-0.14-8.539-0.981-8.513-1.88
					c0.027-0.898,3.881-1.513,8.609-1.373C451.335,235.199,455.147,236.04,455.12,236.939z"/>
			</g>
			<g>
				<path style="fill:#ED6262;" d="M462.243,236.35l-0.997,33.683c-0.035,1.187,5.003,2.3,11.253,2.485
					c6.25,0.185,11.345-0.628,11.38-1.815l0.997-33.683L462.243,236.35z"/>
				<path style="fill:#959FAF;" d="M484.875,237.02c-0.035,1.187-5.13,2-11.38,1.815c-6.25-0.185-11.288-1.297-11.252-2.485
					c0.035-1.187,5.13-2,11.38-1.815C479.872,234.72,484.91,235.833,484.875,237.02z"/>
				<path style="fill:#C7D7EA;" d="M482.12,236.939c-0.027,0.898-3.881,1.513-8.609,1.373c-4.728-0.14-8.539-0.981-8.513-1.88
					c0.027-0.898,3.881-1.513,8.609-1.373C478.335,235.199,482.147,236.04,482.12,236.939z"/>
			</g>
			<g>
				<path style="fill:#ED6262;" d="M489.243,236.35l-0.997,33.683c-0.035,1.187,5.003,2.3,11.253,2.485
					c6.25,0.185,11.345-0.628,11.38-1.815l0.997-33.683L489.243,236.35z"/>
				<path style="fill:#959FAF;" d="M511.875,237.02c-0.035,1.187-5.13,2-11.38,1.815c-6.25-0.185-11.288-1.297-11.252-2.485
					c0.035-1.187,5.13-2,11.38-1.815C506.872,234.72,511.91,235.833,511.875,237.02z"/>
				<path style="fill:#C7D7EA;" d="M509.12,236.939c-0.027,0.898-3.881,1.513-8.609,1.373c-4.728-0.14-8.539-0.981-8.513-1.88
					c0.027-0.898,3.881-1.513,8.609-1.373C505.335,235.199,509.147,236.04,509.12,236.939z"/>
			</g>
			<g>
				<path style="fill:#ED6262;" d="M449.243,202.35l-0.997,33.683c-0.035,1.187,5.003,2.3,11.253,2.485
					c6.25,0.185,11.345-0.628,11.38-1.815l0.997-33.683L449.243,202.35z"/>
				<path style="fill:#959FAF;" d="M471.875,203.02c-0.035,1.187-5.13,2-11.38,1.815c-6.25-0.185-11.288-1.297-11.252-2.485
					c0.035-1.187,5.13-2,11.38-1.815C466.872,200.72,471.91,201.833,471.875,203.02z"/>
				<path style="fill:#C7D7EA;" d="M469.12,202.939c-0.027,0.898-3.881,1.513-8.609,1.373c-4.728-0.14-8.539-0.981-8.513-1.88
					c0.027-0.898,3.881-1.513,8.609-1.373C465.335,201.199,469.147,202.04,469.12,202.939z"/>
			</g>
			<g>
				<path style="fill:#ED6262;" d="M476.368,202.35l-0.997,33.683c-0.035,1.187,5.003,2.3,11.253,2.485
					c6.25,0.185,11.345-0.628,11.38-1.815L499,203.02L476.368,202.35z"/>
				<path style="fill:#959FAF;" d="M499,203.02c-0.035,1.187-5.13,2-11.38,1.815c-6.25-0.185-11.288-1.297-11.253-2.485
					c0.035-1.187,5.13-2,11.38-1.815C493.997,200.72,499.035,201.833,499,203.02z"/>
				<path style="fill:#C7D7EA;" d="M496.245,202.939c-0.027,0.898-3.881,1.513-8.609,1.373c-4.728-0.14-8.539-0.981-8.513-1.88
					c0.027-0.898,3.881-1.513,8.609-1.373C492.46,201.199,496.271,202.04,496.245,202.939z"/>
			</g>
			<polygon style="fill:#E0DCD1;" points="502.36,444.055 432.36,444.055 435.36,290.055 502.36,290.055 			"/>
			<rect x="435.36" y="290.055" style="opacity:0.1;fill:#1C1D1E;" width="67" height="14"/>
			<polygon style="fill:#F5F3EE;" points="505.36,296.055 425.36,296.055 426.36,271.055 505.36,271.055 			"/>
		</g>
	</g>
</g>
</svg>
